<svg height="624pt" preserveAspectRatio="xMidYMid meet" viewBox="0 0 624 624" width="624pt" xmlns="http://www.w3.org/2000/svg"><path d="m2048 6205c-2-2-34-6-73-10-97-9-191-31-315-72-109-36-330-137-342-157-4-6-8-8-8-3 0 7-207-127-220-142-3-3-26-22-52-41-44-33-215-202-286-283-39-44-78-99-135-188-23-36-48-74-55-85-7-10-41-77-76-149-90-183-147-362-176-545-6-41-14-86-17-100-9-44-11-383-2-445 5-33 11-78 14-100 2-22 7-51 10-65s8-36 10-50c18-113 96-335 170-485 99-199 216-363 372-521 132-133 165-159 406-325 6-4-107-124-249-266-346-347-531-540-595-620-19-24-61-112-80-168-8-24-13-83-13-150 0-131 21-202 91-307 71-108 164-178 297-222 43-15 85-28 94-29 9-2 49-13 87-25 227-69 1104-303 1195-318 14-3 39-9 57-15 17-5 44-12 60-15 15-3 44-9 64-15 31-8 151-34 249-55 13-3 56-12 95-20 38-9 80-17 93-20 47-9 69-13 122-24 30-6 69-14 85-16 17-3 77-13 135-23 166-30 251-43 284-46 17-2 47-5 66-8 19-4 56-9 83-12 26-3 66-7 90-10 23-3 69-8 102-12 85-9 519-9 585-1 52 7 65 9 135 24 45 9 152 43 225 71 141 54 397 189 408 215 2 4 10 8 18 8s14 5 14 10c0 6 6 10 14 10s16 4 18 8 21 21 43 37c164 122 405 389 488 540 12 22 25 42 28 45 16 13 136 259 144 295 1 5 7 24 14 40 27 68 32 84 56 180 32 120 33 128 41 185 3 25 8 54 10 65 14 72 26 366 16 388-2 5-6 32-8 60-7 100-12 133-32 232-66 325-224 651-437 904-75 89-298 299-329 310-6 2-13 7-16 11s-43 33-90 64c-47 32-83 60-82 64 2 4 139 145 305 313 517 523 548 557 587 646 45 101 65 250 45 333-3 14-8 36-11 50-2 14-23 62-45 107-72 144-193 238-374 292-147 43-182 53-245 71-144 40-186 52-203 55-9 2-21 6-25 9-5 3-19 7-33 10-26 6-58 14-154 41-33 9-68 18-78 20-9 2-21 6-25 9-5 3-19 7-33 9-13 3-79 19-146 36-67 18-130 34-140 35-10 2-47 12-83 21s-72 18-80 20-53 13-100 24c-47 12-94 23-105 26-11 2-50 11-87 20-38 8-98 22-135 30-61 14-165 36-308 65-27 6-66 13-85 16s-41 7-49 10c-8 2-30 7-50 10s-47 7-61 10-38 7-55 9c-16 3-41 7-55 10-35 7-64 12-150 25-41 6-91 13-110 16s-55 7-80 10c-25 2-61 6-80 9-19 2-66 7-105 11-119 10-140 12-140 14 0 3-404 7-407 5z" transform="matrix(.1 0 0 -.1 0 624)"/></svg>