<svg width="36" height="36" viewBox="0 0 36 36" fill="none" xmlns="http://www.w3.org/2000/svg">
<path d="M22.3925 13.3891C21.8674 13.4219 21.408 13.0281 21.3752 12.5358C21.3424 12.0435 21.7362 11.6169 22.2612 11.5841C24.5911 11.4528 26.8882 11.8466 28.9883 12.6671C30.7275 10.3042 32.1714 8.03971 33.2215 6.33317C33.2871 6.23472 33.3528 6.10345 33.4184 6.00499C33.7465 5.41427 33.845 4.7251 33.7137 4.0031C33.484 2.78883 32.5324 1.86991 31.3838 1.50891C31.1213 1.44328 30.8588 1.37765 30.5963 1.37765C24.8208 0.360291 13.4995 -1.11653 7.59279 1.34482C1.16101 4.00309 -1.75955 11.059 1.09537 17.0647C2.14546 19.2963 3.88467 21.0685 5.98485 22.2828L9.56171 18.1149C9.88986 17.7211 10.4805 17.6554 10.9071 17.9836C11.3337 18.279 11.3994 18.8369 11.0712 19.2307L3.78623 27.7306C3.75341 27.7634 3.68778 27.7962 3.65496 27.829C3.22837 28.4854 2.83458 29.1089 2.50643 29.6668C2.4408 29.7653 2.37517 29.8966 2.30954 29.995C1.98139 30.5857 1.88294 31.2749 2.0142 31.9969C2.24391 33.2112 3.19555 34.1301 4.34409 34.4911C4.60661 34.5567 4.86913 34.6224 5.13165 34.6224C10.9071 35.6397 22.2284 37.1165 28.1351 34.6552C34.1403 32.161 37.0937 25.8599 35.1248 20.1496C32.9262 16.3099 28.2992 13.0609 22.3925 13.3891Z" fill="url(#paint0_linear_0_129)"/>
<defs>
<linearGradient id="paint0_linear_0_129" x1="2.7169" y1="6.17477" x2="31.3678" y2="32.1911" gradientUnits="userSpaceOnUse">
<stop stop-color="#0CEAFC"/>
<stop offset="0.255208" stop-color="#9E8ED4"/>
<stop offset="0.65625" stop-color="#FF58B7"/>
<stop offset="1" stop-color="#FFA629"/>
</linearGradient>
</defs>
</svg>
