<svg width="36" height="37" viewBox="0 0 36 37" fill="none" xmlns="http://www.w3.org/2000/svg">
<path d="M22.5608 13.4897C22.0318 13.5228 21.569 13.126 21.5359 12.6301C21.5029 12.1341 21.8996 11.7042 22.4286 11.6712C24.776 11.5389 27.0903 11.9357 29.2063 12.7623C30.9586 10.3816 32.4133 8.10016 33.4713 6.38079C33.5374 6.2816 33.6035 6.14934 33.6697 6.05014C34.0003 5.45498 34.0995 4.76062 33.9672 4.0332C33.7358 2.8098 32.777 1.88397 31.6198 1.52026C31.3553 1.45413 31.0908 1.38801 30.8263 1.38801C25.0074 0.363 13.601 -1.12493 7.64988 1.35493C1.16973 4.03318 -1.77278 11.1421 1.10361 17.193C2.16159 19.4414 3.91388 21.2269 6.02985 22.4503L9.6336 18.2511C9.96422 17.8543 10.5593 17.7882 10.9891 18.1188C11.4189 18.4164 11.4851 18.9785 11.1545 19.3753L3.8147 27.9391C3.78163 27.9721 3.71551 28.0052 3.68244 28.0383C3.25264 28.6996 2.8559 29.3278 2.52528 29.8899C2.45915 29.9891 2.39303 30.1214 2.32691 30.2205C1.99629 30.8157 1.8971 31.5101 2.02935 32.2375C2.26078 33.4609 3.21958 34.3867 4.37675 34.7504C4.64124 34.8165 4.90574 34.8827 5.17023 34.8827C10.9891 35.9077 22.3955 37.3956 28.3467 34.9157C34.397 32.4028 37.3726 26.0544 35.3889 20.3011C33.1737 16.4325 28.512 13.1591 22.5608 13.4897Z" fill="url(#paint0_linear_7_509)"/>
<defs>
<linearGradient id="paint0_linear_7_509" x1="2.73733" y1="6.2212" x2="31.6037" y2="32.4332" gradientUnits="userSpaceOnUse">
<stop stop-color="#0CEAFC"/>
<stop offset="0.255208" stop-color="#9E8ED4"/>
<stop offset="0.65625" stop-color="#FF58B7"/>
<stop offset="1" stop-color="#FFA629"/>
</linearGradient>
</defs>
</svg>
