<svg width="125" height="43" viewBox="0 0 125 23" fill="none" xmlns="http://www.w3.org/2000/svg">
<path d="M0.0332031 15.4286C1.57361 17.4036 4.57866 18.8722 8.013 18.8722C13.013 18.8722 15.9675 15.859 15.9675 12.2381C15.9675 9.706 14.1494 8.11077 10.6898 7.37646C7.86149 6.79408 7.28068 6.38894 7.28068 5.60398C7.28068 4.76839 8.06351 4.13536 9.57866 4.13536C11.3211 4.13536 13.0383 4.99628 14.1494 6.23701L16.9776 3.0972C15.5888 1.35004 12.9625 0.0839844 9.95745 0.0839844C5.31098 0.0839844 2.33118 2.91995 2.33118 6.36362C2.33118 9.0983 4.14937 10.5669 8.21502 11.4025C10.3362 11.8583 10.9423 12.2888 10.9423 13.0737C10.9423 14.1119 9.95745 14.7955 8.34128 14.7955C6.37159 14.7955 4.40189 13.7827 3.08876 12.0609L0.0332031 15.4286ZM30.796 5.19885H25.9981L24.9627 12.466C24.7607 13.884 24.0284 14.593 22.9678 14.593C21.9577 14.593 21.4526 13.9346 21.6294 12.7445L22.69 5.19885H17.8668L16.6799 13.7574C16.2506 16.9225 17.9173 18.8469 20.6193 18.8469C22.0082 18.8469 23.4223 18.3405 24.2809 17.3783L24.1294 18.5684H28.9274L30.796 5.19885ZM35.6359 17.201C36.2672 18.2139 37.6309 18.8722 39.1965 18.8722C42.9844 18.8722 45.5349 15.2007 45.5349 10.8708C45.5349 7.32582 43.6915 4.89499 40.6359 4.89499C39.0702 4.89499 37.8581 5.55334 37.1511 6.43958L37.3026 5.19885H32.5046L30.0298 22.9489H34.8278L35.6359 17.201ZM36.4187 11.5038C36.646 9.85793 37.5298 8.94637 38.7925 8.94637C40.0298 8.94637 40.6864 9.85793 40.6864 11.3266C40.6864 13.251 39.6763 14.8209 38.1864 14.8209C36.9238 14.8209 36.1157 13.7321 36.343 12.1368L36.4187 11.5038ZM52.4341 18.8722C55.2371 18.8722 57.7371 17.4036 58.8482 14.9728L55.1361 13.6308C54.6816 14.6183 53.7977 15.15 52.7371 15.15C51.4997 15.15 50.6664 14.441 50.5149 12.9218H59.2523L59.3785 12.1115C59.9846 8.06013 57.7624 4.89499 53.4442 4.89499C49.025 4.89499 45.9694 8.36399 45.9694 12.7952C45.9694 16.3655 48.3684 18.8722 52.4341 18.8722ZM53.2422 8.46527C54.3785 8.46527 55.0604 9.25022 54.9846 10.2631H50.8937C51.323 9.17426 52.1563 8.46527 53.2422 8.46527ZM70.3478 5.19885C70.07 5.1482 69.7418 5.12288 69.4387 5.12288C67.9741 5.12288 66.7872 5.78123 65.9791 6.71811L66.1811 5.19885H61.3832L59.5145 18.5684H64.3125L65.171 12.4913C65.4488 10.5669 66.7367 9.5794 68.5296 9.5794C68.9084 9.5794 69.2872 9.63004 69.7165 9.706L70.3478 5.19885ZM76.888 0.387836H72.09L69.5395 18.5684H74.3375L76.888 0.387836ZM83.7138 4.89499C79.1683 4.89499 76.3653 8.43995 76.3653 12.5926C76.3653 16.5174 78.9915 18.8722 82.7542 18.8722C87.2996 18.8722 90.1027 15.3273 90.1027 11.1746C90.1027 7.24986 87.5016 4.89499 83.7138 4.89499ZM82.9057 14.9981C81.8198 14.9981 81.0622 14.1625 81.0622 12.4913C81.0622 10.415 82.0723 8.76912 83.5875 8.76912C84.6734 8.76912 85.4309 9.60472 85.4309 11.2759C85.4309 13.3522 84.4208 14.9981 82.9057 14.9981ZM95.2045 12.466C95.2045 10.3897 96.2651 8.79444 97.7803 8.79444C98.8156 8.79444 99.3964 9.52876 99.5227 10.7188L103.866 9.40215C103.563 7.04729 101.518 4.89499 97.957 4.89499C93.4873 4.89499 90.558 8.54123 90.558 12.7445C90.558 16.2642 93.058 18.8722 96.7197 18.8722C100.179 18.8722 102.502 16.9478 103.21 14.4157L99.2449 13.0231C98.8914 14.2385 98.1338 14.9728 97.0732 14.9728C95.9621 14.9728 95.2045 14.1878 95.2045 12.466ZM116.615 18.5431L117.095 15.0741C116.413 15.1247 116.135 14.9475 116.236 14.4157L116.867 9.78197C117.297 6.74343 114.948 4.89499 111.211 4.89499C107.524 4.89499 105.302 6.71811 104.519 9.14894L108.989 9.88325C109.292 8.99701 109.822 8.6172 110.731 8.6172C111.792 8.64252 112.271 9.12362 112.145 9.93389L112.12 10.1618L109.165 10.491C105.58 10.8201 103.383 12.4407 103.383 15.0488C103.383 17.353 105.251 18.8216 107.852 18.8216C109.418 18.8216 110.706 18.3152 111.59 17.4289C112.347 18.5684 114.266 19.1001 116.615 18.5431ZM111.615 13.7827C111.463 14.8462 110.605 15.4539 109.443 15.4539C108.585 15.4539 108.08 15.1247 108.08 14.517C108.08 13.8587 108.585 13.3776 109.771 13.251L111.716 13.0231L111.615 13.7827ZM124.88 0.387836H120.082L117.531 18.5684H122.329L124.88 0.387836Z" fill="white"/>
</svg>
